<?xml version="1.0" encoding="UTF-8" standalone="no"?><!DOCTYPE svg PUBLIC "-//W3C//DTD SVG 1.1//EN" "http://www.w3.org/Graphics/SVG/1.1/DTD/svg11.dtd"><svg width="100%" height="100%" viewBox="0 0 17 17" version="1.1" xmlns="http://www.w3.org/2000/svg" xmlns:xlink="http://www.w3.org/1999/xlink" xml:space="preserve" style="fill-rule:evenodd;clip-rule:evenodd;stroke-linejoin:round;stroke-miterlimit:1.41421;"><path d="M2.88,2.329c-1.5,1.516 -2.33,3.511 -2.33,5.649c0,2.139 0.83,4.133 2.33,5.648c1.499,1.517 3.51,2.331 5.648,2.331c2.139,0 4.133,-0.83 5.648,-2.331c1.517,-1.5 2.331,-3.509 2.331,-5.648c0,-1.818 -0.591,-3.526 -1.723,-4.947c-0.894,-1.132 -2.075,-1.994 -3.431,-2.505l0,1.692c0.861,0.415 1.627,1.037 2.217,1.787c0.91,1.149 1.388,2.521 1.388,3.989c0,3.542 -2.887,6.43 -6.43,6.43c-3.542,0 -6.43,-2.904 -6.43,-6.446c0,-3.175 2.361,-5.904 5.505,-6.35l0.143,-0.032l0,6.382c0,0.431 0.352,0.782 0.782,0.782c0.431,0 0.782,-0.351 0.782,-0.782l0,-7.978l-0.782,0c-2.138,0 -4.133,0.83 -5.648,2.329l0,0ZM4.923,5.409c-0.432,0 -0.782,0.351 -0.782,0.782l0,1.787c0,2.409 1.962,4.372 4.371,4.372c2.409,0 4.388,-1.963 4.388,-4.372l0,-1.803c0,-0.431 -0.351,-0.782 -0.781,-0.782c-0.432,0 -0.766,0.351 -0.766,0.782l0,1.803c0,1.563 -1.261,2.824 -2.825,2.824c-1.564,0 -2.824,-1.261 -2.824,-2.824l0,-1.803c0,-0.431 -0.351,-0.766 -0.781,-0.766l0,0Z" style="fill:#82878c;fill-rule:nonzero;"/></svg>