<svg viewBox="0 0 256 256" xmlns="http://www.w3.org/2000/svg" fill-rule="evenodd" clip-rule="evenodd" stroke-linejoin="round" stroke-miterlimit="1.414">
    <path fill="#364952" d="M-.143 0H256v256H-.143z"/>
    <path d="M136.546 149.076c5.776 14.428 5.367 30.756-1.229 44.916l-16.329-16.33c1.124-5.223 1.067-10.65-.171-15.852 6.026-4.005 11.94-8.249 17.729-12.734zm-45.962.221c12.18-20.287 27.016-39.426 44.505-56.915 25.914-25.914 55.447-46 86.974-60.26-14.259 31.527-34.346 61.061-60.259 86.974-17.49 17.49-36.629 32.325-56.916 44.506l-14.304-14.305zm64.159-63.846c3.863-3.864 10.128-3.864 13.991 0 3.864 3.864 3.864 10.128 0 13.992-3.863 3.863-10.128 3.863-13.991 0-3.864-3.864-3.864-10.128 0-13.992zm-62.117 49.978c-5.279-1.296-10.796-1.374-16.103-.231l-16.329-16.33c14.24-6.633 30.674-7.01 45.161-1.129-4.482 5.776-8.725 11.677-12.729 17.69z" fill="#ff5c3f"/>
    <path d="M37.109 217.438c1.175-2.9 20.191-46.75 27.211-53.771 7.358-7.357 19.286-7.357 26.643 0 7.358 7.358 7.358 19.286 0 26.643-7.197 7.198-52.234 24.883-53.854 27.128l-.044.112.002.014c-.019.037-.019.032-.002-.014-.001-.031.013-.069.044-.112zm23.528-23.477c.465-1.15 8.009-18.546 10.795-21.332 2.918-2.918 7.651-2.918 10.569 0 2.919 2.919 2.919 7.651 0 10.57-2.855 2.856-20.722 9.871-21.364 10.762l-.018.045c-.001-.013.005-.028.018-.045z" fill="#fdebb8"/>
    <path d="M191.882 199.878l-3.607-13.846-14.473-3.451 14.473-3.45 3.607-13.834 3.611 13.86 14.488 3.458-14.462 3.459-3.589 13.859-.048-.055z" fill="#5c6d74"/>
    <path fill="#21cbc4" d="M0 246.79h256V256H0z"/>
    <path d="M92.614 62.392l-3.608-13.847-14.473-3.45 14.473-3.451 3.608-13.833 3.61 13.86 14.489 3.458-14.463 3.458-3.589 13.86-.047-.055zM0 86.087v-5.702L80.385 0h5.702L0 86.087zM0 134.538L78.517 56.02c.787-.786 2.064-.786 2.851 0 .787.787.787 2.064 0 2.851L0 140.239v-5.701zM0 193.815l56.113-56.113c.787-.787 2.064-.787 2.851 0 .786.787.786 2.064 0 2.851L0 199.516v-5.701zM70.918 246.79l49.533-49.533c.786-.787 2.064-.787 2.851 0 .786.786.786 2.064 0 2.85L76.619 246.79h-5.701zM123.677 246.79l52.633-52.633c.787-.787 2.064-.787 2.851 0 .787.787.787 2.064 0 2.851l-49.782 49.782h-5.702zM178.964 246.79L256 169.754v5.702l-71.334 71.334h-5.702z" fill="#5c6d74"/>
</svg>
