<svg width="100%" height="100%" viewBox="0 0 60 60" version="1.1" xmlns="http://www.w3.org/2000/svg" xmlns:xlink="http://www.w3.org/1999/xlink" xml:space="preserve" style="fill-rule:evenodd;clip-rule:evenodd;stroke-linejoin:round;stroke-miterlimit:1.41421;">
    <g transform="matrix(0.0661361,0,0,0.0661361,13.4754,15.6974)">
        <path d="M185.2,44.67C208.94,41.27 233.01,40.03 256.97,41.11C297.29,41.45 338.23,46.14 375.98,60.99C391.67,67.33 407.41,75.3 418.52,88.44C433.92,106.24 442.37,128.88 447.64,151.53C455.25,185.42 456.1,220.47 453.94,255.03C452.62,272.66 451.27,290.37 447.62,307.7C443.57,326.36 436.47,344.61 425,360C414.21,374.72 399.37,386.33 382.69,393.68C372.87,398.1 362.45,400.96 351.96,403.27C330.16,409.4 307.62,412.55 285.1,414.59C262.71,416.5 240.18,416.81 217.75,415.39C192.44,442.42 167.42,469.72 142.24,496.87C142.43,465.57 141.98,434.28 142,402.99C128.09,399.1 114.56,393.47 102.6,385.32C86.88,374.92 74.1,360.33 65.29,343.71C49.6,314.14 45.42,280.09 44.76,247.08C44.65,207.33 44.7,166.38 58.8,128.63C65.23,111.65 74.84,95.65 88.07,83.1C98.23,74.02 110.14,67.08 122.57,61.6C142.48,52.93 163.77,47.84 185.2,44.67ZM153.4,111.63C158.75,109.92 164.75,110.69 169.61,113.46C173.97,115.91 177.4,119.63 180.66,123.35C186.56,130.17 192.29,137.14 197.56,144.47C203.46,152.53 209.27,160.9 212.54,170.42C214.27,175.27 214.36,181 211.21,185.3C206.4,191.52 199.65,195.77 193.68,200.76C186.47,206.73 188.12,217.22 191.03,224.99C195.58,238.93 204.42,251.05 214.63,261.4C225.84,272.57 238.59,282.58 253.29,288.72C257.11,290.26 261,291.74 265.09,292.42C269.77,293.13 274.97,291.82 278.18,288.18C282.18,283.49 285.73,278.44 289.82,273.82C296.37,267.25 307.33,266.6 315.33,270.79C329.62,278.61 343.02,287.96 355.48,298.44C360.19,302.67 366.24,305.94 368.94,311.96C371.84,318.13 370.41,325.41 367.1,331.12C362.79,338.54 357.44,345.36 351.3,351.35C342,361.54 327.33,369.34 313.45,364.29C283.5,352.56 254.87,337.2 229.2,317.76C202.23,297.34 178.56,272.67 158.76,245.27C141.03,220.68 126.55,193.65 116.83,164.9C114.86,158.7 113.41,151.92 115.34,145.52C117.26,139.14 122.08,134.25 126.84,129.84C133.08,124.28 140.02,119.57 146.94,114.91C148.94,113.55 151.07,112.33 153.4,111.63ZM242.39,108.31C243.51,107.69 244.71,107.41 246,107.48C273.27,107.18 300.85,115.66 322.35,132.65C334.31,142.07 344.74,153.61 352.05,167.02C363.51,187.65 368.08,211.55 367.93,234.98C367.8,240.45 360.35,243.05 356.54,239.42C353.67,237.19 354.32,233.29 354.13,230.11C353.51,206.42 347.49,182.13 332.99,163C317.14,141.89 293.01,127.21 266.95,122.95C259.39,121.47 251.67,121.48 244.03,120.85C238.39,119.61 237.35,111.01 242.39,108.31ZM253.32,138.36C256.09,137.16 259.2,138.04 262.09,138.22C280.21,140.17 298.26,146.82 311.77,159.32C329.67,175.43 338.77,200.15 336.98,223.99C336.02,228.96 329.19,230.75 325.66,227.33C322.59,224.77 323.71,220.46 323.41,216.99C323.06,200.42 316.77,183.86 304.96,172.07C293.31,159.73 276.54,153.52 259.92,151.88C257.23,151.5 254.21,151.77 251.94,149.99C248.09,147.1 248.84,140.24 253.32,138.36ZM262.51,169.61C267.66,168.54 272.99,169.9 278.03,171.06C288.72,173.76 298.19,181.27 302.59,191.46C305.59,198.22 307.17,205.68 307,213.08C306.79,218.15 300.11,220.81 296.22,217.8C293.26,215.9 293.35,212.09 293.05,209.01C292.36,200.96 289.2,192.44 282.17,187.85C276.62,183.92 269.66,183.36 263.13,182.55C257.09,181.16 256.73,171.67 262.51,169.61Z" style="fill:rgb(86,78,146);"/>
    </g>
</svg>
